<svg width="316" height="55" viewBox="0 0 316 55" fill="none" xmlns="http://www.w3.org/2000/svg">
<g filter="url(#filter0_d)">
<rect x="8" y="4" width="300" height="39" rx="5" fill="white"/>
<rect x="9" y="5" width="298" height="37" rx="4" stroke="#8477C9" stroke-width="2"/>
</g>
<path d="M54.2755 19.608V22.176H57.5275V23.466H54.2755V27H52.6555V18.324H58.1275V19.608H54.2755ZM60.7426 20.844V27H59.2546V20.844H60.7426ZM60.9466 19.05C60.9466 19.178 60.9206 19.298 60.8686 19.41C60.8166 19.522 60.7466 19.62 60.6586 19.704C60.5746 19.788 60.4746 19.856 60.3586 19.908C60.2426 19.956 60.1186 19.98 59.9866 19.98C59.8586 19.98 59.7366 19.956 59.6206 19.908C59.5086 19.856 59.4106 19.788 59.3266 19.704C59.2426 19.62 59.1746 19.522 59.1226 19.41C59.0746 19.298 59.0506 19.178 59.0506 19.05C59.0506 18.918 59.0746 18.794 59.1226 18.678C59.1746 18.562 59.2426 18.462 59.3266 18.378C59.4106 18.294 59.5086 18.228 59.6206 18.18C59.7366 18.128 59.8586 18.102 59.9866 18.102C60.1186 18.102 60.2426 18.128 60.3586 18.18C60.4746 18.228 60.5746 18.294 60.6586 18.378C60.7466 18.462 60.8166 18.562 60.8686 18.678C60.9206 18.794 60.9466 18.918 60.9466 19.05ZM66.2195 23.214C66.2195 23.022 66.1915 22.842 66.1355 22.674C66.0835 22.502 66.0035 22.352 65.8955 22.224C65.7875 22.096 65.6495 21.996 65.4815 21.924C65.3175 21.848 65.1255 21.81 64.9055 21.81C64.4775 21.81 64.1395 21.932 63.8915 22.176C63.6475 22.42 63.4915 22.766 63.4235 23.214H66.2195ZM63.3935 24.108C63.4175 24.424 63.4735 24.698 63.5615 24.93C63.6495 25.158 63.7655 25.348 63.9095 25.5C64.0535 25.648 64.2235 25.76 64.4195 25.836C64.6195 25.908 64.8395 25.944 65.0795 25.944C65.3195 25.944 65.5255 25.916 65.6975 25.86C65.8735 25.804 66.0255 25.742 66.1535 25.674C66.2855 25.606 66.3995 25.544 66.4955 25.488C66.5955 25.432 66.6915 25.404 66.7835 25.404C66.9075 25.404 66.9995 25.45 67.0595 25.542L67.4855 26.082C67.3215 26.274 67.1375 26.436 66.9335 26.568C66.7295 26.696 66.5155 26.8 66.2915 26.88C66.0715 26.956 65.8455 27.01 65.6135 27.042C65.3855 27.074 65.1635 27.09 64.9475 27.09C64.5195 27.09 64.1215 27.02 63.7535 26.88C63.3855 26.736 63.0655 26.526 62.7935 26.25C62.5215 25.97 62.3075 25.626 62.1515 25.218C61.9955 24.806 61.9175 24.33 61.9175 23.79C61.9175 23.37 61.9855 22.976 62.1215 22.608C62.2575 22.236 62.4515 21.914 62.7035 21.642C62.9595 21.366 63.2695 21.148 63.6335 20.988C64.0015 20.828 64.4155 20.748 64.8755 20.748C65.2635 20.748 65.6215 20.81 65.9495 20.934C66.2775 21.058 66.5595 21.24 66.7955 21.48C67.0315 21.716 67.2155 22.008 67.3475 22.356C67.4835 22.7 67.5515 23.094 67.5515 23.538C67.5515 23.762 67.5275 23.914 67.4795 23.994C67.4315 24.07 67.3395 24.108 67.2035 24.108H63.3935ZM70.1636 18.084V27H68.6816V18.084H70.1636ZM75.5042 22.416C75.3362 22.212 75.1522 22.068 74.9522 21.984C74.7562 21.9 74.5442 21.858 74.3162 21.858C74.0922 21.858 73.8902 21.9 73.7102 21.984C73.5302 22.068 73.3762 22.196 73.2482 22.368C73.1202 22.536 73.0222 22.752 72.9542 23.016C72.8862 23.276 72.8522 23.584 72.8522 23.94C72.8522 24.3 72.8802 24.606 72.9362 24.858C72.9962 25.106 73.0802 25.31 73.1882 25.47C73.2962 25.626 73.4282 25.74 73.5842 25.812C73.7402 25.88 73.9142 25.914 74.1062 25.914C74.4142 25.914 74.6762 25.85 74.8922 25.722C75.1082 25.594 75.3122 25.412 75.5042 25.176V22.416ZM76.9862 18.084V27H76.0802C75.8842 27 75.7602 26.91 75.7082 26.73L75.5822 26.136C75.3342 26.42 75.0482 26.65 74.7242 26.826C74.4042 27.002 74.0302 27.09 73.6022 27.09C73.2662 27.09 72.9582 27.02 72.6782 26.88C72.3982 26.74 72.1562 26.538 71.9522 26.274C71.7522 26.006 71.5962 25.676 71.4842 25.284C71.3762 24.892 71.3222 24.444 71.3222 23.94C71.3222 23.484 71.3842 23.06 71.5082 22.668C71.6322 22.276 71.8102 21.936 72.0422 21.648C72.2742 21.36 72.5522 21.136 72.8762 20.976C73.2002 20.812 73.5642 20.73 73.9682 20.73C74.3122 20.73 74.6062 20.784 74.8502 20.892C75.0942 21 75.3122 21.146 75.5042 21.33V18.084H76.9862ZM82.2048 22.044C82.1648 22.108 82.1228 22.154 82.0788 22.182C82.0348 22.206 81.9788 22.218 81.9108 22.218C81.8388 22.218 81.7608 22.198 81.6768 22.158C81.5968 22.118 81.5028 22.074 81.3948 22.026C81.2868 21.974 81.1628 21.928 81.0228 21.888C80.8868 21.848 80.7248 21.828 80.5368 21.828C80.2448 21.828 80.0148 21.89 79.8468 22.014C79.6828 22.138 79.6008 22.3 79.6008 22.5C79.6008 22.632 79.6428 22.744 79.7268 22.836C79.8148 22.924 79.9288 23.002 80.0688 23.07C80.2128 23.138 80.3748 23.2 80.5548 23.256C80.7348 23.308 80.9168 23.366 81.1008 23.43C81.2888 23.494 81.4728 23.568 81.6528 23.652C81.8328 23.732 81.9928 23.836 82.1328 23.964C82.2768 24.088 82.3908 24.238 82.4748 24.414C82.5628 24.59 82.6068 24.802 82.6068 25.05C82.6068 25.346 82.5528 25.62 82.4448 25.872C82.3408 26.12 82.1848 26.336 81.9768 26.52C81.7688 26.7 81.5108 26.842 81.2028 26.946C80.8988 27.046 80.5468 27.096 80.1468 27.096C79.9348 27.096 79.7268 27.076 79.5228 27.036C79.3228 27 79.1288 26.948 78.9408 26.88C78.7568 26.812 78.5848 26.732 78.4248 26.64C78.2688 26.548 78.1308 26.448 78.0108 26.34L78.3528 25.776C78.3968 25.708 78.4488 25.656 78.5088 25.62C78.5688 25.584 78.6448 25.566 78.7368 25.566C78.8288 25.566 78.9148 25.592 78.9948 25.644C79.0788 25.696 79.1748 25.752 79.2828 25.812C79.3908 25.872 79.5168 25.928 79.6608 25.98C79.8088 26.032 79.9948 26.058 80.2188 26.058C80.3948 26.058 80.5448 26.038 80.6688 25.998C80.7968 25.954 80.9008 25.898 80.9808 25.83C81.0648 25.762 81.1248 25.684 81.1608 25.596C81.2008 25.504 81.2208 25.41 81.2208 25.314C81.2208 25.17 81.1768 25.052 81.0888 24.96C81.0048 24.868 80.8908 24.788 80.7468 24.72C80.6068 24.652 80.4448 24.592 80.2608 24.54C80.0808 24.484 79.8948 24.424 79.7028 24.36C79.5148 24.296 79.3288 24.222 79.1448 24.138C78.9648 24.05 78.8028 23.94 78.6588 23.808C78.5188 23.676 78.4048 23.514 78.3168 23.322C78.2328 23.13 78.1908 22.898 78.1908 22.626C78.1908 22.374 78.2408 22.134 78.3408 21.906C78.4408 21.678 78.5868 21.48 78.7788 21.312C78.9748 21.14 79.2168 21.004 79.5048 20.904C79.7968 20.8 80.1328 20.748 80.5128 20.748C80.9368 20.748 81.3228 20.818 81.6708 20.958C82.0188 21.098 82.3088 21.282 82.5408 21.51L82.2048 22.044ZM86.6402 27V20.844H87.5462C87.7382 20.844 87.8642 20.934 87.9242 21.114L88.0202 21.57C88.1282 21.45 88.2402 21.34 88.3562 21.24C88.4762 21.14 88.6022 21.054 88.7342 20.982C88.8702 20.91 89.0142 20.854 89.1662 20.814C89.3222 20.77 89.4922 20.748 89.6762 20.748C90.0642 20.748 90.3822 20.854 90.6302 21.066C90.8822 21.274 91.0702 21.552 91.1942 21.9C91.2902 21.696 91.4102 21.522 91.5542 21.378C91.6982 21.23 91.8562 21.11 92.0282 21.018C92.2002 20.926 92.3822 20.858 92.5742 20.814C92.7702 20.77 92.9662 20.748 93.1622 20.748C93.5022 20.748 93.8042 20.8 94.0682 20.904C94.3322 21.008 94.5542 21.16 94.7342 21.36C94.9142 21.56 95.0502 21.804 95.1422 22.092C95.2382 22.38 95.2862 22.71 95.2862 23.082V27H93.8042V23.082C93.8042 22.69 93.7182 22.396 93.5462 22.2C93.3742 22 93.1222 21.9 92.7902 21.9C92.6382 21.9 92.4962 21.926 92.3642 21.978C92.2362 22.03 92.1222 22.106 92.0222 22.206C91.9262 22.302 91.8502 22.424 91.7942 22.572C91.7382 22.72 91.7102 22.89 91.7102 23.082V27H90.2222V23.082C90.2222 22.67 90.1382 22.37 89.9702 22.182C89.8062 21.994 89.5642 21.9 89.2442 21.9C89.0282 21.9 88.8262 21.954 88.6382 22.062C88.4542 22.166 88.2822 22.31 88.1222 22.494V27H86.6402ZM99.9469 24.372C99.5189 24.392 99.1589 24.43 98.8669 24.486C98.5749 24.538 98.3409 24.606 98.1649 24.69C97.9889 24.774 97.8629 24.872 97.7869 24.984C97.7109 25.096 97.6729 25.218 97.6729 25.35C97.6729 25.61 97.7489 25.796 97.9009 25.908C98.0569 26.02 98.2589 26.076 98.5069 26.076C98.8109 26.076 99.0729 26.022 99.2929 25.914C99.5169 25.802 99.7349 25.634 99.9469 25.41V24.372ZM96.5509 21.702C97.2589 21.054 98.1109 20.73 99.1069 20.73C99.4669 20.73 99.7889 20.79 100.073 20.91C100.357 21.026 100.597 21.19 100.793 21.402C100.989 21.61 101.137 21.86 101.237 22.152C101.341 22.444 101.393 22.764 101.393 23.112V27H100.721C100.581 27 100.473 26.98 100.397 26.94C100.321 26.896 100.261 26.81 100.217 26.682L100.085 26.238C99.9289 26.378 99.7769 26.502 99.6289 26.61C99.4809 26.714 99.3269 26.802 99.1669 26.874C99.0069 26.946 98.8349 27 98.6509 27.036C98.4709 27.076 98.2709 27.096 98.0509 27.096C97.7909 27.096 97.5509 27.062 97.3309 26.994C97.1109 26.922 96.9209 26.816 96.7609 26.676C96.6009 26.536 96.4769 26.362 96.3889 26.154C96.3009 25.946 96.2569 25.704 96.2569 25.428C96.2569 25.272 96.2829 25.118 96.3349 24.966C96.3869 24.81 96.4709 24.662 96.5869 24.522C96.7069 24.382 96.8609 24.25 97.0489 24.126C97.2369 24.002 97.4669 23.894 97.7389 23.802C98.0149 23.71 98.3349 23.636 98.6989 23.58C99.0629 23.52 99.4789 23.484 99.9469 23.472V23.112C99.9469 22.7 99.8589 22.396 99.6829 22.2C99.5069 22 99.2529 21.9 98.9209 21.9C98.6809 21.9 98.4809 21.928 98.3209 21.984C98.1649 22.04 98.0269 22.104 97.9069 22.176C97.7869 22.244 97.6769 22.306 97.5769 22.362C97.4809 22.418 97.3729 22.446 97.2529 22.446C97.1489 22.446 97.0609 22.42 96.9889 22.368C96.9169 22.312 96.8589 22.248 96.8149 22.176L96.5509 21.702ZM104.187 21.912C104.379 21.544 104.607 21.256 104.871 21.048C105.135 20.836 105.447 20.73 105.807 20.73C106.091 20.73 106.319 20.792 106.491 20.916L106.395 22.026C106.375 22.098 106.345 22.15 106.305 22.182C106.269 22.21 106.219 22.224 106.155 22.224C106.095 22.224 106.005 22.214 105.885 22.194C105.769 22.174 105.655 22.164 105.543 22.164C105.379 22.164 105.233 22.188 105.105 22.236C104.977 22.284 104.861 22.354 104.757 22.446C104.657 22.534 104.567 22.642 104.487 22.77C104.411 22.898 104.339 23.044 104.271 23.208V27H102.789V20.844H103.659C103.811 20.844 103.917 20.872 103.977 20.928C104.037 20.98 104.077 21.076 104.097 21.216L104.187 21.912ZM108.747 18.084V23.19H109.023C109.123 23.19 109.201 23.178 109.257 23.154C109.317 23.126 109.377 23.072 109.437 22.992L110.967 21.102C111.031 21.018 111.101 20.954 111.177 20.91C111.257 20.866 111.359 20.844 111.483 20.844H112.839L110.925 23.13C110.789 23.31 110.641 23.448 110.481 23.544C110.565 23.604 110.639 23.674 110.703 23.754C110.771 23.834 110.835 23.92 110.895 24.012L112.947 27H111.609C111.493 27 111.393 26.982 111.309 26.946C111.225 26.906 111.155 26.836 111.099 26.736L109.527 24.402C109.471 24.31 109.413 24.25 109.353 24.222C109.293 24.194 109.203 24.18 109.083 24.18H108.747V27H107.265V18.084H108.747ZM117.325 23.214C117.325 23.022 117.297 22.842 117.241 22.674C117.189 22.502 117.109 22.352 117.001 22.224C116.893 22.096 116.755 21.996 116.587 21.924C116.423 21.848 116.231 21.81 116.011 21.81C115.583 21.81 115.245 21.932 114.997 22.176C114.753 22.42 114.597 22.766 114.529 23.214H117.325ZM114.499 24.108C114.523 24.424 114.579 24.698 114.667 24.93C114.755 25.158 114.871 25.348 115.015 25.5C115.159 25.648 115.329 25.76 115.525 25.836C115.725 25.908 115.945 25.944 116.185 25.944C116.425 25.944 116.631 25.916 116.803 25.86C116.979 25.804 117.131 25.742 117.259 25.674C117.391 25.606 117.505 25.544 117.601 25.488C117.701 25.432 117.797 25.404 117.889 25.404C118.013 25.404 118.105 25.45 118.165 25.542L118.591 26.082C118.427 26.274 118.243 26.436 118.039 26.568C117.835 26.696 117.621 26.8 117.397 26.88C117.177 26.956 116.951 27.01 116.719 27.042C116.491 27.074 116.269 27.09 116.053 27.09C115.625 27.09 115.227 27.02 114.859 26.88C114.491 26.736 114.171 26.526 113.899 26.25C113.627 25.97 113.413 25.626 113.257 25.218C113.101 24.806 113.023 24.33 113.023 23.79C113.023 23.37 113.091 22.976 113.227 22.608C113.363 22.236 113.557 21.914 113.809 21.642C114.065 21.366 114.375 21.148 114.739 20.988C115.107 20.828 115.521 20.748 115.981 20.748C116.369 20.748 116.727 20.81 117.055 20.934C117.383 21.058 117.665 21.24 117.901 21.48C118.137 21.716 118.321 22.008 118.453 22.356C118.589 22.7 118.657 23.094 118.657 23.538C118.657 23.762 118.633 23.914 118.585 23.994C118.537 24.07 118.445 24.108 118.309 24.108H114.499ZM123.633 22.416C123.465 22.212 123.281 22.068 123.081 21.984C122.885 21.9 122.673 21.858 122.445 21.858C122.221 21.858 122.019 21.9 121.839 21.984C121.659 22.068 121.505 22.196 121.377 22.368C121.249 22.536 121.151 22.752 121.083 23.016C121.015 23.276 120.981 23.584 120.981 23.94C120.981 24.3 121.009 24.606 121.065 24.858C121.125 25.106 121.209 25.31 121.317 25.47C121.425 25.626 121.557 25.74 121.713 25.812C121.869 25.88 122.043 25.914 122.235 25.914C122.543 25.914 122.805 25.85 123.021 25.722C123.237 25.594 123.441 25.412 123.633 25.176V22.416ZM125.115 18.084V27H124.209C124.013 27 123.889 26.91 123.837 26.73L123.711 26.136C123.463 26.42 123.177 26.65 122.853 26.826C122.533 27.002 122.159 27.09 121.731 27.09C121.395 27.09 121.087 27.02 120.807 26.88C120.527 26.74 120.285 26.538 120.081 26.274C119.881 26.006 119.725 25.676 119.613 25.284C119.505 24.892 119.451 24.444 119.451 23.94C119.451 23.484 119.513 23.06 119.637 22.668C119.761 22.276 119.939 21.936 120.171 21.648C120.403 21.36 120.681 21.136 121.005 20.976C121.329 20.812 121.693 20.73 122.097 20.73C122.441 20.73 122.735 20.784 122.979 20.892C123.223 21 123.441 21.146 123.633 21.33V18.084H125.115ZM138.04 20.844L136.084 27H134.896C134.76 27 134.666 26.912 134.614 26.736L133.51 23.178C133.474 23.058 133.44 22.94 133.408 22.824C133.38 22.704 133.356 22.584 133.336 22.464C133.312 22.584 133.284 22.706 133.252 22.83C133.224 22.95 133.192 23.07 133.156 23.19L132.034 26.736C131.986 26.912 131.88 27 131.716 27H130.576L128.626 20.844H129.808C129.916 20.844 130.008 20.87 130.084 20.922C130.16 20.974 130.21 21.04 130.234 21.12L131.116 24.408C131.16 24.588 131.198 24.764 131.23 24.936C131.266 25.108 131.296 25.28 131.32 25.452C131.364 25.28 131.41 25.108 131.458 24.936C131.51 24.764 131.564 24.588 131.62 24.408L132.64 21.108C132.664 21.028 132.71 20.962 132.778 20.91C132.85 20.858 132.936 20.832 133.036 20.832H133.69C133.794 20.832 133.882 20.858 133.954 20.91C134.03 20.962 134.08 21.028 134.104 21.108L135.094 24.408C135.146 24.588 135.194 24.766 135.238 24.942C135.286 25.114 135.332 25.286 135.376 25.458C135.428 25.118 135.502 24.768 135.598 24.408L136.504 21.12C136.532 21.04 136.582 20.974 136.654 20.922C136.726 20.87 136.812 20.844 136.912 20.844H138.04ZM140.418 20.844V27H138.93V20.844H140.418ZM140.622 19.05C140.622 19.178 140.596 19.298 140.544 19.41C140.492 19.522 140.422 19.62 140.334 19.704C140.25 19.788 140.15 19.856 140.034 19.908C139.918 19.956 139.794 19.98 139.662 19.98C139.534 19.98 139.412 19.956 139.296 19.908C139.184 19.856 139.086 19.788 139.002 19.704C138.918 19.62 138.85 19.522 138.798 19.41C138.75 19.298 138.726 19.178 138.726 19.05C138.726 18.918 138.75 18.794 138.798 18.678C138.85 18.562 138.918 18.462 139.002 18.378C139.086 18.294 139.184 18.228 139.296 18.18C139.412 18.128 139.534 18.102 139.662 18.102C139.794 18.102 139.918 18.128 140.034 18.18C140.15 18.228 140.25 18.294 140.334 18.378C140.422 18.462 140.492 18.562 140.544 18.678C140.596 18.794 140.622 18.918 140.622 19.05ZM143.981 27.096C143.445 27.096 143.033 26.946 142.745 26.646C142.461 26.342 142.319 25.924 142.319 25.392V21.954H141.689C141.609 21.954 141.541 21.928 141.485 21.876C141.429 21.824 141.401 21.746 141.401 21.642V21.054L142.391 20.892L142.703 19.212C142.723 19.132 142.761 19.07 142.817 19.026C142.873 18.982 142.945 18.96 143.033 18.96H143.801V20.898H145.445V21.954H143.801V25.29C143.801 25.482 143.847 25.632 143.939 25.74C144.035 25.848 144.165 25.902 144.329 25.902C144.421 25.902 144.497 25.892 144.557 25.872C144.621 25.848 144.675 25.824 144.719 25.8C144.767 25.776 144.809 25.754 144.845 25.734C144.881 25.71 144.917 25.698 144.953 25.698C144.997 25.698 145.033 25.71 145.061 25.734C145.089 25.754 145.119 25.786 145.151 25.83L145.595 26.55C145.379 26.73 145.131 26.866 144.851 26.958C144.571 27.05 144.281 27.096 143.981 27.096ZM147.876 21.504C148.116 21.28 148.38 21.098 148.668 20.958C148.956 20.818 149.294 20.748 149.682 20.748C150.018 20.748 150.316 20.806 150.576 20.922C150.836 21.034 151.052 21.194 151.224 21.402C151.4 21.606 151.532 21.852 151.62 22.14C151.712 22.424 151.758 22.738 151.758 23.082V27H150.276V23.082C150.276 22.706 150.19 22.416 150.018 22.212C149.846 22.004 149.584 21.9 149.232 21.9C148.976 21.9 148.736 21.958 148.512 22.074C148.288 22.19 148.076 22.348 147.876 22.548V27H146.394V18.084H147.876V21.504ZM158.888 19.77C158.816 19.814 158.744 19.852 158.672 19.884C158.604 19.912 158.532 19.932 158.456 19.944C158.612 19.968 158.756 20.024 158.888 20.112L159.842 20.67L159.494 21.27L158.54 20.712C158.468 20.668 158.4 20.622 158.336 20.574C158.276 20.526 158.224 20.474 158.18 20.418C158.232 20.55 158.258 20.702 158.258 20.874V21.978H157.55V20.88C157.55 20.8 157.554 20.722 157.562 20.646C157.574 20.57 157.592 20.498 157.616 20.43C157.572 20.486 157.52 20.536 157.46 20.58C157.4 20.624 157.336 20.668 157.268 20.712L156.32 21.264L155.966 20.664L156.92 20.112C157.072 20.024 157.216 19.968 157.352 19.944C157.212 19.92 157.068 19.862 156.92 19.77L155.966 19.212L156.314 18.612L157.268 19.176C157.34 19.22 157.406 19.266 157.466 19.314C157.526 19.358 157.58 19.408 157.628 19.464C157.576 19.332 157.55 19.182 157.55 19.014V17.904H158.258V19.002C158.258 19.086 158.252 19.166 158.24 19.242C158.232 19.318 158.214 19.39 158.186 19.458C158.234 19.402 158.288 19.352 158.348 19.308C158.408 19.264 158.472 19.22 158.54 19.176L159.488 18.624L159.842 19.224L158.888 19.77ZM167.353 24.372C166.925 24.392 166.565 24.43 166.273 24.486C165.981 24.538 165.747 24.606 165.571 24.69C165.395 24.774 165.269 24.872 165.193 24.984C165.117 25.096 165.079 25.218 165.079 25.35C165.079 25.61 165.155 25.796 165.307 25.908C165.463 26.02 165.665 26.076 165.913 26.076C166.217 26.076 166.479 26.022 166.699 25.914C166.923 25.802 167.141 25.634 167.353 25.41V24.372ZM163.957 21.702C164.665 21.054 165.517 20.73 166.513 20.73C166.873 20.73 167.195 20.79 167.479 20.91C167.763 21.026 168.003 21.19 168.199 21.402C168.395 21.61 168.543 21.86 168.643 22.152C168.747 22.444 168.799 22.764 168.799 23.112V27H168.127C167.987 27 167.879 26.98 167.803 26.94C167.727 26.896 167.667 26.81 167.623 26.682L167.491 26.238C167.335 26.378 167.183 26.502 167.035 26.61C166.887 26.714 166.733 26.802 166.573 26.874C166.413 26.946 166.241 27 166.057 27.036C165.877 27.076 165.677 27.096 165.457 27.096C165.197 27.096 164.957 27.062 164.737 26.994C164.517 26.922 164.327 26.816 164.167 26.676C164.007 26.536 163.883 26.362 163.795 26.154C163.707 25.946 163.663 25.704 163.663 25.428C163.663 25.272 163.689 25.118 163.741 24.966C163.793 24.81 163.877 24.662 163.993 24.522C164.113 24.382 164.267 24.25 164.455 24.126C164.643 24.002 164.873 23.894 165.145 23.802C165.421 23.71 165.741 23.636 166.105 23.58C166.469 23.52 166.885 23.484 167.353 23.472V23.112C167.353 22.7 167.265 22.396 167.089 22.2C166.913 22 166.659 21.9 166.327 21.9C166.087 21.9 165.887 21.928 165.727 21.984C165.571 22.04 165.433 22.104 165.313 22.176C165.193 22.244 165.083 22.306 164.983 22.362C164.887 22.418 164.779 22.446 164.659 22.446C164.555 22.446 164.467 22.42 164.395 22.368C164.323 22.312 164.265 22.248 164.221 22.176L163.957 21.702ZM171.593 21.912C171.785 21.544 172.013 21.256 172.277 21.048C172.541 20.836 172.853 20.73 173.213 20.73C173.497 20.73 173.725 20.792 173.897 20.916L173.801 22.026C173.781 22.098 173.751 22.15 173.711 22.182C173.675 22.21 173.625 22.224 173.561 22.224C173.501 22.224 173.411 22.214 173.291 22.194C173.175 22.174 173.061 22.164 172.949 22.164C172.785 22.164 172.639 22.188 172.511 22.236C172.383 22.284 172.267 22.354 172.163 22.446C172.063 22.534 171.973 22.642 171.893 22.77C171.817 22.898 171.745 23.044 171.677 23.208V27H170.195V20.844H171.065C171.217 20.844 171.323 20.872 171.383 20.928C171.443 20.98 171.483 21.076 171.503 21.216L171.593 21.912ZM178.462 23.214C178.462 23.022 178.434 22.842 178.378 22.674C178.326 22.502 178.246 22.352 178.138 22.224C178.03 22.096 177.892 21.996 177.724 21.924C177.56 21.848 177.368 21.81 177.148 21.81C176.72 21.81 176.382 21.932 176.134 22.176C175.89 22.42 175.734 22.766 175.666 23.214H178.462ZM175.636 24.108C175.66 24.424 175.716 24.698 175.804 24.93C175.892 25.158 176.008 25.348 176.152 25.5C176.296 25.648 176.466 25.76 176.662 25.836C176.862 25.908 177.082 25.944 177.322 25.944C177.562 25.944 177.768 25.916 177.94 25.86C178.116 25.804 178.268 25.742 178.396 25.674C178.528 25.606 178.642 25.544 178.738 25.488C178.838 25.432 178.934 25.404 179.026 25.404C179.15 25.404 179.242 25.45 179.302 25.542L179.728 26.082C179.564 26.274 179.38 26.436 179.176 26.568C178.972 26.696 178.758 26.8 178.534 26.88C178.314 26.956 178.088 27.01 177.856 27.042C177.628 27.074 177.406 27.09 177.19 27.09C176.762 27.09 176.364 27.02 175.996 26.88C175.628 26.736 175.308 26.526 175.036 26.25C174.764 25.97 174.55 25.626 174.394 25.218C174.238 24.806 174.16 24.33 174.16 23.79C174.16 23.37 174.228 22.976 174.364 22.608C174.5 22.236 174.694 21.914 174.946 21.642C175.202 21.366 175.512 21.148 175.876 20.988C176.244 20.828 176.658 20.748 177.118 20.748C177.506 20.748 177.864 20.81 178.192 20.934C178.52 21.058 178.802 21.24 179.038 21.48C179.274 21.716 179.458 22.008 179.59 22.356C179.726 22.7 179.794 23.094 179.794 23.538C179.794 23.762 179.77 23.914 179.722 23.994C179.674 24.07 179.582 24.108 179.446 24.108H175.636ZM183.824 27V20.844H184.73C184.922 20.844 185.048 20.934 185.108 21.114L185.204 21.57C185.312 21.45 185.424 21.34 185.54 21.24C185.66 21.14 185.786 21.054 185.918 20.982C186.054 20.91 186.198 20.854 186.35 20.814C186.506 20.77 186.676 20.748 186.86 20.748C187.248 20.748 187.566 20.854 187.814 21.066C188.066 21.274 188.254 21.552 188.378 21.9C188.474 21.696 188.594 21.522 188.738 21.378C188.882 21.23 189.04 21.11 189.212 21.018C189.384 20.926 189.566 20.858 189.758 20.814C189.954 20.77 190.15 20.748 190.346 20.748C190.686 20.748 190.988 20.8 191.252 20.904C191.516 21.008 191.738 21.16 191.918 21.36C192.098 21.56 192.234 21.804 192.326 22.092C192.422 22.38 192.47 22.71 192.47 23.082V27H190.988V23.082C190.988 22.69 190.902 22.396 190.73 22.2C190.558 22 190.306 21.9 189.974 21.9C189.822 21.9 189.68 21.926 189.548 21.978C189.42 22.03 189.306 22.106 189.206 22.206C189.11 22.302 189.034 22.424 188.978 22.572C188.922 22.72 188.894 22.89 188.894 23.082V27H187.406V23.082C187.406 22.67 187.322 22.37 187.154 22.182C186.99 21.994 186.748 21.9 186.428 21.9C186.212 21.9 186.01 21.954 185.822 22.062C185.638 22.166 185.466 22.31 185.306 22.494V27H183.824ZM197.13 24.372C196.702 24.392 196.342 24.43 196.05 24.486C195.758 24.538 195.524 24.606 195.348 24.69C195.172 24.774 195.046 24.872 194.97 24.984C194.894 25.096 194.856 25.218 194.856 25.35C194.856 25.61 194.932 25.796 195.084 25.908C195.24 26.02 195.442 26.076 195.69 26.076C195.994 26.076 196.256 26.022 196.476 25.914C196.7 25.802 196.918 25.634 197.13 25.41V24.372ZM193.734 21.702C194.442 21.054 195.294 20.73 196.29 20.73C196.65 20.73 196.972 20.79 197.256 20.91C197.54 21.026 197.78 21.19 197.976 21.402C198.172 21.61 198.32 21.86 198.42 22.152C198.524 22.444 198.576 22.764 198.576 23.112V27H197.904C197.764 27 197.656 26.98 197.58 26.94C197.504 26.896 197.444 26.81 197.4 26.682L197.268 26.238C197.112 26.378 196.96 26.502 196.812 26.61C196.664 26.714 196.51 26.802 196.35 26.874C196.19 26.946 196.018 27 195.834 27.036C195.654 27.076 195.454 27.096 195.234 27.096C194.974 27.096 194.734 27.062 194.514 26.994C194.294 26.922 194.104 26.816 193.944 26.676C193.784 26.536 193.66 26.362 193.572 26.154C193.484 25.946 193.44 25.704 193.44 25.428C193.44 25.272 193.466 25.118 193.518 24.966C193.57 24.81 193.654 24.662 193.77 24.522C193.89 24.382 194.044 24.25 194.232 24.126C194.42 24.002 194.65 23.894 194.922 23.802C195.198 23.71 195.518 23.636 195.882 23.58C196.246 23.52 196.662 23.484 197.13 23.472V23.112C197.13 22.7 197.042 22.396 196.866 22.2C196.69 22 196.436 21.9 196.104 21.9C195.864 21.9 195.664 21.928 195.504 21.984C195.348 22.04 195.21 22.104 195.09 22.176C194.97 22.244 194.86 22.306 194.76 22.362C194.664 22.418 194.556 22.446 194.436 22.446C194.332 22.446 194.244 22.42 194.172 22.368C194.1 22.312 194.042 22.248 193.998 22.176L193.734 21.702ZM201.358 21.6C201.482 21.476 201.612 21.362 201.748 21.258C201.888 21.15 202.034 21.06 202.186 20.988C202.342 20.912 202.508 20.854 202.684 20.814C202.86 20.77 203.052 20.748 203.26 20.748C203.596 20.748 203.894 20.806 204.154 20.922C204.414 21.034 204.63 21.194 204.802 21.402C204.978 21.606 205.11 21.852 205.198 22.14C205.29 22.424 205.336 22.738 205.336 23.082V27H203.854V23.082C203.854 22.706 203.768 22.416 203.596 22.212C203.424 22.004 203.162 21.9 202.81 21.9C202.554 21.9 202.314 21.958 202.09 22.074C201.866 22.19 201.654 22.348 201.454 22.548V27H199.972V20.844H200.878C201.07 20.844 201.196 20.934 201.256 21.114L201.358 21.6ZM210.61 22.416C210.442 22.212 210.258 22.068 210.058 21.984C209.862 21.9 209.65 21.858 209.422 21.858C209.198 21.858 208.996 21.9 208.816 21.984C208.636 22.068 208.482 22.196 208.354 22.368C208.226 22.536 208.128 22.752 208.06 23.016C207.992 23.276 207.958 23.584 207.958 23.94C207.958 24.3 207.986 24.606 208.042 24.858C208.102 25.106 208.186 25.31 208.294 25.47C208.402 25.626 208.534 25.74 208.69 25.812C208.846 25.88 209.02 25.914 209.212 25.914C209.52 25.914 209.782 25.85 209.998 25.722C210.214 25.594 210.418 25.412 210.61 25.176V22.416ZM212.092 18.084V27H211.186C210.99 27 210.866 26.91 210.814 26.73L210.688 26.136C210.44 26.42 210.154 26.65 209.83 26.826C209.51 27.002 209.136 27.09 208.708 27.09C208.372 27.09 208.064 27.02 207.784 26.88C207.504 26.74 207.262 26.538 207.058 26.274C206.858 26.006 206.702 25.676 206.59 25.284C206.482 24.892 206.428 24.444 206.428 23.94C206.428 23.484 206.49 23.06 206.614 22.668C206.738 22.276 206.916 21.936 207.148 21.648C207.38 21.36 207.658 21.136 207.982 20.976C208.306 20.812 208.67 20.73 209.074 20.73C209.418 20.73 209.712 20.784 209.956 20.892C210.2 21 210.418 21.146 210.61 21.33V18.084H212.092ZM216.806 24.372C216.378 24.392 216.018 24.43 215.726 24.486C215.434 24.538 215.2 24.606 215.024 24.69C214.848 24.774 214.722 24.872 214.646 24.984C214.57 25.096 214.532 25.218 214.532 25.35C214.532 25.61 214.608 25.796 214.76 25.908C214.916 26.02 215.118 26.076 215.366 26.076C215.67 26.076 215.932 26.022 216.152 25.914C216.376 25.802 216.594 25.634 216.806 25.41V24.372ZM213.41 21.702C214.118 21.054 214.97 20.73 215.966 20.73C216.326 20.73 216.648 20.79 216.932 20.91C217.216 21.026 217.456 21.19 217.652 21.402C217.848 21.61 217.996 21.86 218.096 22.152C218.2 22.444 218.252 22.764 218.252 23.112V27H217.58C217.44 27 217.332 26.98 217.256 26.94C217.18 26.896 217.12 26.81 217.076 26.682L216.944 26.238C216.788 26.378 216.636 26.502 216.488 26.61C216.34 26.714 216.186 26.802 216.026 26.874C215.866 26.946 215.694 27 215.51 27.036C215.33 27.076 215.13 27.096 214.91 27.096C214.65 27.096 214.41 27.062 214.19 26.994C213.97 26.922 213.78 26.816 213.62 26.676C213.46 26.536 213.336 26.362 213.248 26.154C213.16 25.946 213.116 25.704 213.116 25.428C213.116 25.272 213.142 25.118 213.194 24.966C213.246 24.81 213.33 24.662 213.446 24.522C213.566 24.382 213.72 24.25 213.908 24.126C214.096 24.002 214.326 23.894 214.598 23.802C214.874 23.71 215.194 23.636 215.558 23.58C215.922 23.52 216.338 23.484 216.806 23.472V23.112C216.806 22.7 216.718 22.396 216.542 22.2C216.366 22 216.112 21.9 215.78 21.9C215.54 21.9 215.34 21.928 215.18 21.984C215.024 22.04 214.886 22.104 214.766 22.176C214.646 22.244 214.536 22.306 214.436 22.362C214.34 22.418 214.232 22.446 214.112 22.446C214.008 22.446 213.92 22.42 213.848 22.368C213.776 22.312 213.718 22.248 213.674 22.176L213.41 21.702ZM221.618 27.096C221.082 27.096 220.67 26.946 220.382 26.646C220.098 26.342 219.956 25.924 219.956 25.392V21.954H219.326C219.246 21.954 219.178 21.928 219.122 21.876C219.066 21.824 219.038 21.746 219.038 21.642V21.054L220.028 20.892L220.34 19.212C220.36 19.132 220.398 19.07 220.454 19.026C220.51 18.982 220.582 18.96 220.67 18.96H221.438V20.898H223.082V21.954H221.438V25.29C221.438 25.482 221.484 25.632 221.576 25.74C221.672 25.848 221.802 25.902 221.966 25.902C222.058 25.902 222.134 25.892 222.194 25.872C222.258 25.848 222.312 25.824 222.356 25.8C222.404 25.776 222.446 25.754 222.482 25.734C222.518 25.71 222.554 25.698 222.59 25.698C222.634 25.698 222.67 25.71 222.698 25.734C222.726 25.754 222.756 25.786 222.788 25.83L223.232 26.55C223.016 26.73 222.768 26.866 222.488 26.958C222.208 27.05 221.918 27.096 221.618 27.096ZM226.708 20.748C227.164 20.748 227.578 20.822 227.95 20.97C228.326 21.118 228.646 21.328 228.91 21.6C229.178 21.872 229.384 22.204 229.528 22.596C229.672 22.988 229.744 23.426 229.744 23.91C229.744 24.398 229.672 24.838 229.528 25.23C229.384 25.622 229.178 25.956 228.91 26.232C228.646 26.508 228.326 26.72 227.95 26.868C227.578 27.016 227.164 27.09 226.708 27.09C226.248 27.09 225.83 27.016 225.454 26.868C225.078 26.72 224.756 26.508 224.488 26.232C224.224 25.956 224.018 25.622 223.87 25.23C223.726 24.838 223.654 24.398 223.654 23.91C223.654 23.426 223.726 22.988 223.87 22.596C224.018 22.204 224.224 21.872 224.488 21.6C224.756 21.328 225.078 21.118 225.454 20.97C225.83 20.822 226.248 20.748 226.708 20.748ZM226.708 25.95C227.22 25.95 227.598 25.778 227.842 25.434C228.09 25.09 228.214 24.586 228.214 23.922C228.214 23.258 228.09 22.752 227.842 22.404C227.598 22.056 227.22 21.882 226.708 21.882C226.188 21.882 225.802 22.058 225.55 22.41C225.302 22.758 225.178 23.262 225.178 23.922C225.178 24.582 225.302 25.086 225.55 25.434C225.802 25.778 226.188 25.95 226.708 25.95ZM232.273 21.912C232.465 21.544 232.693 21.256 232.957 21.048C233.221 20.836 233.533 20.73 233.893 20.73C234.177 20.73 234.405 20.792 234.577 20.916L234.481 22.026C234.461 22.098 234.431 22.15 234.391 22.182C234.355 22.21 234.305 22.224 234.241 22.224C234.181 22.224 234.091 22.214 233.971 22.194C233.855 22.174 233.741 22.164 233.629 22.164C233.465 22.164 233.319 22.188 233.191 22.236C233.063 22.284 232.947 22.354 232.843 22.446C232.743 22.534 232.653 22.642 232.573 22.77C232.497 22.898 232.425 23.044 232.357 23.208V27H230.875V20.844H231.745C231.897 20.844 232.003 20.872 232.063 20.928C232.123 20.98 232.163 21.076 232.183 21.216L232.273 21.912ZM240.943 20.844L237.589 28.692C237.545 28.796 237.487 28.874 237.415 28.926C237.347 28.982 237.241 29.01 237.097 29.01H235.993L237.145 26.538L234.655 20.844H235.957C236.073 20.844 236.163 20.872 236.227 20.928C236.295 20.984 236.345 21.048 236.377 21.12L237.685 24.312C237.729 24.42 237.765 24.528 237.793 24.636C237.825 24.744 237.855 24.854 237.883 24.966C237.919 24.854 237.955 24.744 237.991 24.636C238.027 24.524 238.067 24.414 238.111 24.306L239.347 21.12C239.379 21.04 239.431 20.974 239.503 20.922C239.579 20.87 239.663 20.844 239.755 20.844H240.943Z" fill="#8477C9"/>
<path d="M29.458 19.3749H31.5413V17.2916H29.458V19.3749ZM30.4997 30.8333C25.9059 30.8333 22.1663 27.0937 22.1663 22.4999C22.1663 17.9062 25.9059 14.1666 30.4997 14.1666C35.0934 14.1666 38.833 17.9062 38.833 22.4999C38.833 27.0937 35.0934 30.8333 30.4997 30.8333ZM30.4997 12.0833C29.1317 12.0833 27.7772 12.3527 26.5134 12.8762C25.2496 13.3997 24.1013 14.1669 23.134 15.1342C21.1805 17.0877 20.083 19.7372 20.083 22.4999C20.083 25.2626 21.1805 27.9121 23.134 29.8656C24.1013 30.8329 25.2496 31.6002 26.5134 32.1237C27.7772 32.6472 29.1317 32.9166 30.4997 32.9166C33.2623 32.9166 35.9119 31.8191 37.8654 29.8656C39.8189 27.9121 40.9163 25.2626 40.9163 22.4999C40.9163 21.132 40.6469 19.7774 40.1234 18.5136C39.5999 17.2498 38.8326 16.1015 37.8654 15.1342C36.8981 14.1669 35.7498 13.3997 34.486 12.8762C33.2222 12.3527 31.8676 12.0833 30.4997 12.0833ZM29.458 27.7083H31.5413V21.4583H29.458V27.7083Z" fill="#8477C9"/>
<defs>
<filter id="filter0_d" x="0" y="0" width="316" height="55" filterUnits="userSpaceOnUse" color-interpolation-filters="sRGB">
<feFlood flood-opacity="0" result="BackgroundImageFix"/>
<feColorMatrix in="SourceAlpha" type="matrix" values="0 0 0 0 0 0 0 0 0 0 0 0 0 0 0 0 0 0 127 0"/>
<feOffset dy="4"/>
<feGaussianBlur stdDeviation="4"/>
<feColorMatrix type="matrix" values="0 0 0 0 0.906083 0 0 0 0 0.904167 0 0 0 0 1 0 0 0 1 0"/>
<feBlend mode="normal" in2="BackgroundImageFix" result="effect1_dropShadow"/>
<feBlend mode="normal" in="SourceGraphic" in2="effect1_dropShadow" result="shape"/>
</filter>
</defs>
</svg>
